<?xml version="1.0" encoding="UTF-8"?>
<svg version="1.1" xmlns="http://www.w3.org/2000/svg" width="1254" height="1254">

<path d="M0 0 C112.53 0 225.06 0 341 0 C339.35 1.65 337.7 3.3 336 5 C335.28199219 5.72960937 334.56398438 6.45921875 333.82421875 7.2109375 C329.70409916 11.38378257 325.5142513 15.38957094 321.0703125 19.21484375 C313.71259363 25.55914097 306.62587626 32.20030428 299.53564453 38.83935547 C295.21657986 42.87871345 290.85324607 46.86227827 286.4453125 50.8046875 C279.91591158 56.66654583 273.47829241 62.63096258 267.03637695 68.58862305 C261.92305893 73.31722118 256.78067149 78.00822945 251.59375 82.65625 C248.54108319 85.41468387 245.51917344 88.20502044 242.5 91 C237.87649899 95.27977624 233.21907612 99.51758655 228.52734375 103.72265625 C225.66917797 106.29809775 222.83289739 108.89685764 220 111.5 C216.35072829 114.85293117 212.68830402 118.18998357 209 121.5 C203.80938114 126.15994856 198.66887157 130.87358275 193.53222656 135.59277344 C191.02322888 137.89708552 188.51149532 140.19841091 186 142.5 C184.99998648 143.41665192 183.99998649 144.3333186 183 145.25 C181 147.08333333 179 148.91666667 177 150.75 C176.50483887 151.20391113 176.00967773 151.65782227 175.49951172 152.12548828 C174.50119339 153.04058633 173.50282114 153.95562555 172.50439453 154.87060547 C169.9782158 157.18578852 167.45303168 159.5020401 164.9296875 161.8203125 C160.32650235 166.04766751 155.71586224 170.26526083 151.0625 174.4375 C146.09487617 178.89643915 141.19316748 183.42438331 136.29296875 187.95703125 C131.7073279 192.19790733 127.09955083 196.41454849 122.49267578 200.63232422 C120.97185124 202.02579152 119.45252676 203.42087751 117.93359375 204.81640625 C113.32926052 209.04523476 108.71723405 213.26403086 104.0625 217.4375 C100.17629402 220.92448097 96.33157193 224.45331985 92.5 228 C87.86973149 232.28599063 83.20442717 236.52882579 78.5078125 240.7421875 C63.00532914 254.6074815 63.00532914 254.6074815 48 269 C65.8360616 270.11132478 83.68714323 270.36789953 101.55051565 270.67424965 C105.91532592 270.7499257 110.28006181 270.8296721 114.64480591 270.90905762 C124.78560945 271.09286478 134.92649312 271.27197802 145.06739044 271.45052338 C157.93712719 271.67731813 170.80682443 271.90624434 183.67644608 272.13948298 C187.99189258 272.21756353 192.30735158 272.2946588 196.62285995 272.36924744 C215.2444916 272.69116508 233.85431433 273.10374611 252.46685791 273.77905273 C262.19715409 274.1251796 271.93137501 274.28239342 281.6661377 274.4458313 C302.11745061 274.79106925 322.55892362 275.26523639 343 276 C343 276.66 343 277.32 343 278 C341.15907101 279.56264902 339.31460167 281.00592212 337.375 282.4375 C336.17260114 283.34298571 334.97079776 284.2492626 333.76953125 285.15625 C333.1451416 285.62546875 332.52075195 286.0946875 331.87744141 286.578125 C328.90892592 288.8263219 325.98545125 291.1305597 323.0625 293.4375 C321.89196488 294.359423 320.7213917 295.28129766 319.55078125 296.203125 C318.9676416 296.66267578 318.38450195 297.12222656 317.78369141 297.59570312 C315.97588854 299.01898291 314.1660235 300.43959792 312.35546875 301.859375 C307.19772757 305.90463493 302.04479948 309.95355793 296.9375 314.0625 C292.70215865 317.4618278 288.40560552 320.77750221 284.09521484 324.08056641 C277.68576372 328.99727782 271.34463143 334.00012569 265 339 C256.58010452 345.63179286 248.13690651 352.23250181 239.67285156 358.80786133 C235.10448985 362.35838894 230.54583587 365.92068531 226 369.5 C220.68238137 373.68700345 215.34484789 377.84781802 210 382 C202.31203286 387.97314584 194.64878722 393.97680398 187 400 C177.13281088 407.77012258 167.23254257 415.49661208 157.31445312 423.20166016 C153.54184366 426.13299363 149.77099645 429.06659198 146 432 C144.50000877 433.16667794 143.00000876 434.3333446 141.5 435.5 C140.38625 436.36625 140.38625 436.36625 139.25 437.25 C132.5 442.5 132.5 442.5 130.24902344 444.25073242 C128.75224357 445.41491259 127.25549866 446.5791377 125.75878906 447.7434082 C121.95980942 450.69849173 118.16018535 453.65274014 114.359375 456.60546875 C106.88173103 462.41589085 99.41482671 468.23887259 91.97558594 474.09838867 C88.17010184 477.09164597 84.34228604 480.05417001 80.5 483 C74.21522199 487.8189656 67.98643978 492.70713895 61.76611328 497.60888672 C58.84628958 499.90874232 55.92300912 502.20419526 53 504.5 C49.54570963 507.21336594 46.09183949 509.92725356 42.640625 512.64453125 C35.34109862 518.38952887 28.016951 524.10203617 20.68164062 529.80126953 C14.33216972 534.73658931 8.00408164 539.69850748 1.68554688 544.67333984 C-1.79423078 547.41220308 -5.27734312 550.1468253 -8.75976562 552.88232422 C-11.62734065 555.13507712 -14.49422954 557.38868889 -17.359375 559.64453125 C-24.65809154 565.38889149 -31.98091126 571.10143723 -39.31616211 576.79907227 C-43.99376532 580.43410421 -48.65912228 584.08402072 -53.3125 587.75 C-57.6866768 591.19541323 -62.0811257 594.6121074 -66.5 598 C-73.3794676 603.27495444 -80.19119262 608.63433275 -87 614 C-96.86640348 621.7711112 -106.76746599 629.49661873 -116.68554688 637.20166016 C-120.45815636 640.13299364 -124.22898151 643.06662028 -128 646 C-128.73855225 646.57435791 -129.47710449 647.14871582 -130.23803711 647.74047852 C-134.05146465 650.70610866 -137.86419963 653.67262266 -141.67578125 656.640625 C-148.35425955 661.83989736 -155.03410159 667.03661162 -161.75 672.1875 C-166.69460205 675.98248207 -171.59828859 679.82577186 -176.49145508 683.68652344 C-181.10469779 687.31732217 -185.76544673 690.88283735 -190.4375 694.4375 C-195.84877162 698.55669992 -201.2053374 702.73197593 -206.5 707 C-214.54982158 713.48729123 -222.77151933 719.74200271 -231 726 C-238.41595828 731.64668875 -245.73890934 737.36030688 -252.85546875 743.3828125 C-255 745 -255 745 -257 745 C-256.28784318 739.3402274 -254.52681138 734.14313963 -252.75 728.75 C-250.44187721 721.64221248 -248.25538685 714.52882626 -246.3125 707.3125 C-245.06454261 702.69041712 -243.77466726 698.16439636 -242.0625 693.6875 C-240.11398514 688.58239107 -238.65343505 683.38360756 -237.1875 678.125 C-235.15414943 670.84190797 -232.9408014 663.65673287 -230.5 656.5 C-228.19032152 649.71096409 -226.05529692 642.90654256 -224.125 636 C-217.61927791 612.80079825 -210.07033229 589.89864868 -202.73413086 566.95214844 C-198.67836654 554.26586119 -194.63545994 541.57568854 -190.625 528.875 C-190.37759064 528.09152191 -190.13018127 527.30804382 -189.87527466 526.50082397 C-186.76142485 516.63485826 -183.67919306 506.75962065 -180.625 496.875 C-176.74842792 484.33474641 -172.78819043 471.8216222 -168.8125 459.3125 C-168.51813049 458.38491882 -168.22376099 457.45733765 -167.92047119 456.50164795 C-164.92460465 447.06503484 -161.89733872 437.64249704 -158.7421875 428.2578125 C-156.77367994 422.39666967 -154.92584738 416.532694 -153.3125 410.5625 C-148.96612712 394.91710437 -143.9144144 379.47397701 -139 364 C-139.72490128 364.01409409 -140.44980255 364.02818817 -141.19667053 364.04270935 C-148.61890033 364.12376334 -155.81607855 363.64422725 -163.18359375 362.78515625 C-164.35506958 362.65434662 -165.52654541 362.52353699 -166.73352051 362.38876343 C-169.9566384 362.02817495 -173.17907166 361.66203202 -176.40134811 361.29401779 C-182.09225047 360.64694173 -187.78523697 360.01821332 -193.47775459 359.3855381 C-195.77973741 359.12950502 -198.08163537 358.87271811 -200.38352966 358.6158905 C-218.64895003 356.5811762 -236.92574611 354.65394478 -255.20269775 352.72608566 C-258.84264322 352.3419862 -262.48250905 351.95713504 -266.12237549 351.57228756 C-282.67143013 349.82266422 -299.22113904 348.07938124 -315.77219963 346.34883308 C-317.83908206 346.13266282 -319.90594224 345.91628112 -321.97279358 345.69981384 C-328.15797886 345.05206692 -334.34330572 344.40578897 -340.52905273 343.76342773 C-342.66390781 343.54027906 -344.79875534 343.3170581 -346.93359375 343.09375 C-347.87932251 342.99626968 -348.82505127 342.89878937 -349.79943848 342.7983551 C-354.23050953 342.33291616 -358.61334234 341.79864182 -363 341 C-363 340.34 -363 339.68 -363 339 C-361.53125 337.53491211 -361.53125 337.53491211 -359.5 335.83984375 C-355.2167877 332.19666251 -351.09488105 328.4151039 -347 324.5625 C-346.29939453 323.90507813 -345.59878906 323.24765625 -344.87695312 322.5703125 C-340.79528889 318.72829863 -336.78720371 314.83046133 -332.8605957 310.82958984 C-331.05080376 309.04995714 -329.18542208 307.38562299 -327.26171875 305.73046875 C-323.18542736 302.18607112 -319.23775367 298.52259743 -315.3125 294.8125 C-310.25810551 290.05089957 -305.18188459 285.31662342 -300.0625 280.625 C-295.60003163 276.53090535 -291.28623797 272.31670966 -287.03515625 268.00390625 C-285.12513946 266.12321793 -283.16219409 264.36587495 -281.125 262.625 C-277.75442279 259.73785219 -274.61495793 256.65753382 -271.5 253.5 C-267.81005779 249.75969175 -264.02496304 246.21760652 -260.02734375 242.80859375 C-256.6839383 239.8259411 -253.5892363 236.59643308 -250.44140625 233.41015625 C-247.72797273 230.73145468 -244.89222977 228.25391882 -241.99609375 225.77734375 C-238.93333273 223.05022777 -236.09776507 220.10595363 -233.21875 217.1875 C-230.59228878 214.59803119 -227.83023542 212.21163036 -225.03125 209.8125 C-221.96162678 207.07345159 -219.11471392 204.1231636 -216.2265625 201.1953125 C-213.55366826 198.55993257 -210.74631697 196.12233511 -207.8984375 193.6796875 C-206.02029247 192.01795424 -204.25694484 190.28874475 -202.5 188.5 C-200.12957643 186.08667283 -197.69263692 183.82728147 -195.125 181.625 C-192.1153247 179.03365795 -189.28911384 176.32745217 -186.5 173.5 C-183.11758601 170.0711721 -179.61929558 166.87951482 -175.96484375 163.74609375 C-173.18438168 161.27518611 -170.60881782 158.6183306 -168 155.96875 C-165.43694772 153.44574541 -162.72654176 151.12437183 -160 148.78125 C-157.21114467 146.29742572 -154.62313017 143.63288563 -152.00390625 140.97265625 C-149.41753849 138.42662171 -146.6846472 136.07978443 -143.93359375 133.71484375 C-142.04505403 132.03995701 -140.26844352 130.30052413 -138.5 128.5 C-136.10946833 126.06610268 -133.64953738 123.78644441 -131.0625 121.5625 C-127.61578784 118.59394444 -124.40889141 115.45920896 -121.25 112.1875 C-119.29546862 110.28726116 -117.2994914 108.49747754 -115.2421875 106.7109375 C-111.10408626 103.11666816 -107.106105 99.39143757 -103.125 95.625 C-98.78806635 91.53919394 -94.44790572 87.46542103 -90 83.5 C-84.95176916 78.99477214 -80.02975393 74.35953122 -75.1003418 69.7253418 C-68.77047786 63.77644533 -62.39178526 57.88219416 -56 52 C-49.14611837 45.68849664 -42.30740191 39.36164289 -35.5 33 C-29.73665404 27.61443321 -23.95900897 22.24510099 -18.15234375 16.90625 C-15.967225 14.89656877 -13.794864 12.87406191 -11.62890625 10.84375 C-10.54427131 9.83333282 -9.45963591 8.82291613 -8.375 7.8125 C-7.41335938 6.91144531 -6.45171875 6.01039063 -5.4609375 5.08203125 C-3 3 -3 3 0 2 C0 1.34 0 0.68 0 0 Z " fill="#FCCF3A" transform="translate(620,231)"/>
<path d="M0 0 C1.2506424 -0.00039276 2.50128479 -0.00078552 3.78982544 -0.00119019 C31.73999234 0.00897249 59.68149332 0.5587109 87.625 1.125 C88.70866978 1.14681461 89.79233955 1.16862923 90.90884781 1.19110489 C112.49053976 1.62659326 134.06887981 2.0813605 155.64161682 2.84971619 C166.54383471 3.23396323 177.44642128 3.45020898 188.3536377 3.6333313 C208.80495061 3.97856925 229.24642362 4.45273639 249.6875 5.1875 C249.6875 5.8475 249.6875 6.5075 249.6875 7.1875 C247.84657101 8.75014902 246.00210167 10.19342212 244.0625 11.625 C242.86010114 12.53048571 241.65829776 13.4367626 240.45703125 14.34375 C239.52044678 15.04757812 239.52044678 15.04757812 238.56494141 15.765625 C235.59642592 18.0138219 232.67295125 20.3180597 229.75 22.625 C228.57946488 23.546923 227.4088917 24.46879766 226.23828125 25.390625 C225.36357178 26.07995117 225.36357178 26.07995117 224.47119141 26.78320312 C222.66338854 28.20648291 220.8535235 29.62709792 219.04296875 31.046875 C213.88522757 35.09213493 208.73229948 39.14105793 203.625 43.25 C199.38965865 46.6493278 195.09310552 49.96500221 190.78271484 53.26806641 C184.37326372 58.18477782 178.03213143 63.18762569 171.6875 68.1875 C163.26760452 74.81929286 154.82440651 81.42000181 146.36035156 87.99536133 C141.79198985 91.54588894 137.23333587 95.10818531 132.6875 98.6875 C127.36988137 102.87450345 122.03234789 107.03531802 116.6875 111.1875 C108.99953286 117.16064584 101.33628722 123.16430398 93.6875 129.1875 C83.82031088 136.95762258 73.92004257 144.68411208 64.00195312 152.38916016 C60.22934366 155.32049363 56.45849645 158.25409198 52.6875 161.1875 C51.18750877 162.35417794 49.68750876 163.5208446 48.1875 164.6875 C47.445 165.265 46.7025 165.8425 45.9375 166.4375 C39.1875 171.6875 39.1875 171.6875 36.93652344 173.43823242 C35.43974357 174.60241259 33.94299866 175.7666377 32.44628906 176.9309082 C28.64730942 179.88599173 24.84768535 182.84024014 21.046875 185.79296875 C13.56923103 191.60339085 6.10232671 197.42637259 -1.33691406 203.28588867 C-5.14239816 206.27914597 -8.97021396 209.24167001 -12.8125 212.1875 C-19.09727801 217.0064656 -25.32606022 221.89463895 -31.54638672 226.79638672 C-34.46621042 229.09624232 -37.38949088 231.39169526 -40.3125 233.6875 C-43.76679037 236.40086594 -47.22066051 239.11475356 -50.671875 241.83203125 C-57.97140138 247.57702887 -65.295549 253.28953617 -72.63085938 258.98876953 C-78.98033028 263.92408931 -85.30841836 268.88600748 -91.62695312 273.86083984 C-95.10673078 276.59970308 -98.58984312 279.3343253 -102.07226562 282.06982422 C-104.93984065 284.32257712 -107.80672954 286.57618889 -110.671875 288.83203125 C-117.97059154 294.57639149 -125.29341126 300.28893723 -132.62866211 305.98657227 C-137.30626532 309.62160421 -141.97162228 313.27152072 -146.625 316.9375 C-150.9991768 320.38291323 -155.3936257 323.7996074 -159.8125 327.1875 C-166.6919676 332.46245444 -173.50369262 337.82183275 -180.3125 343.1875 C-190.17890348 350.9586112 -200.07996599 358.68411873 -209.99804688 366.38916016 C-213.77065636 369.32049364 -217.54148151 372.25412028 -221.3125 375.1875 C-222.05105225 375.76185791 -222.78960449 376.33621582 -223.55053711 376.92797852 C-227.36396465 379.89360866 -231.17669963 382.86012266 -234.98828125 385.828125 C-241.66675955 391.02739736 -248.34660159 396.22411162 -255.0625 401.375 C-260.00710205 405.16998207 -264.91078859 409.01327186 -269.80395508 412.87402344 C-274.41719779 416.50482217 -279.07794673 420.07033735 -283.75 423.625 C-289.16127162 427.74419992 -294.5178374 431.91947593 -299.8125 436.1875 C-307.86232158 442.67479123 -316.08401933 448.92950271 -324.3125 455.1875 C-331.72845828 460.83418875 -339.05140934 466.54780688 -346.16796875 472.5703125 C-348.3125 474.1875 -348.3125 474.1875 -350.3125 474.1875 C-349.60034318 468.5277274 -347.83931138 463.33063963 -346.0625 457.9375 C-343.75437721 450.82971248 -341.56788685 443.71632626 -339.625 436.5 C-338.37704261 431.87791712 -337.08716726 427.35189636 -335.375 422.875 C-333.42648514 417.76989107 -331.96593505 412.57110756 -330.5 407.3125 C-328.46664943 400.02940797 -326.2533014 392.84423287 -323.8125 385.6875 C-321.50282152 378.89846409 -319.36779692 372.09404256 -317.4375 365.1875 C-310.93177791 341.98829825 -303.38283229 319.08614868 -296.04663086 296.13964844 C-291.99086654 283.45336119 -287.94795994 270.76318854 -283.9375 258.0625 C-283.69009064 257.27902191 -283.44268127 256.49554382 -283.18777466 255.68832397 C-280.07392485 245.82235826 -276.99169306 235.94712065 -273.9375 226.0625 C-270.06092792 213.52224641 -266.10069043 201.0091222 -262.125 188.5 C-261.83063049 187.57241882 -261.53626099 186.64483765 -261.23297119 185.68914795 C-258.23710465 176.25253484 -255.20983872 166.82999704 -252.0546875 157.4453125 C-250.08617994 151.58416967 -248.23834738 145.720194 -246.625 139.75 C-242.27862712 124.10460437 -237.2269144 108.66147701 -232.3125 93.1875 C-236.2725 93.1875 -240.2325 93.1875 -244.3125 93.1875 C-244.3125 92.8575 -244.3125 92.5275 -244.3125 92.1875 C-242.04176348 92.01951949 -239.77090707 91.85315887 -237.5 91.6875 C-236.23542969 91.5946875 -234.97085938 91.501875 -233.66796875 91.40625 C-231.55271483 91.26835219 -229.43224408 91.1875 -227.3125 91.1875 C-227.6425 91.8475 -227.9725 92.5075 -228.3125 93.1875 C-227.23491425 93.24119751 -226.15732849 93.29489502 -225.04708862 93.35021973 C-213.73986877 93.93404555 -202.47311863 94.78702242 -191.1953125 95.78125 C-189.43701499 95.93452117 -187.67870374 96.08763479 -185.92037964 96.24060059 C-182.27829644 96.55811019 -178.63640066 96.87766904 -174.99462891 97.19873047 C-170.33028748 97.60974588 -165.66548019 98.01518831 -161.00052071 98.41912079 C-157.38870089 98.73251861 -153.77715142 99.04894612 -150.16567612 99.36628723 C-148.44417643 99.51716285 -146.72259115 99.66706511 -145.00091934 99.81596375 C-142.60856342 100.02329276 -140.21660566 100.23473463 -137.82470703 100.44726562 C-136.76660828 100.5376989 -136.76660828 100.5376989 -135.68713379 100.62995911 C-132.46971214 100.91998532 -129.4275817 101.33381702 -126.3125 102.1875 C-124.73038427 102.25298492 -123.14579919 102.27328381 -121.5625 102.25 C-120.76328125 102.24097656 -119.9640625 102.23195313 -119.140625 102.22265625 C-118.53734375 102.21105469 -117.9340625 102.19945312 -117.3125 102.1875 C-117.0546875 101.47207031 -116.796875 100.75664063 -116.53125 100.01953125 C-115.23865235 97.01589889 -113.6847291 94.55244628 -111.8125 91.875 C-111.2040625 90.99199219 -110.595625 90.10898437 -109.96875 89.19921875 C-109.4221875 88.53535156 -108.875625 87.87148438 -108.3125 87.1875 C-107.6525 87.1875 -106.9925 87.1875 -106.3125 87.1875 C-106.19648437 86.60226562 -106.08046875 86.01703125 -105.9609375 85.4140625 C-105.27256645 83.05037879 -104.37902706 81.54569178 -102.9375 79.5625 C-102.30714844 78.67691406 -102.30714844 78.67691406 -101.6640625 77.7734375 C-100.3125 76.1875 -100.3125 76.1875 -97.3125 74.1875 C-96.93780171 72.86519516 -96.60746546 71.52984283 -96.3125 70.1875 C-95.2265625 68.37109375 -95.2265625 68.37109375 -93.9375 66.625 C-93.51726562 66.04621094 -93.09703125 65.46742188 -92.6640625 64.87109375 C-91.3125 63.1875 -91.3125 63.1875 -89.7109375 61.66015625 C-88.05661219 60.1264211 -88.05661219 60.1264211 -87.3125 57.1875 C-86.6525 57.1875 -85.9925 57.1875 -85.3125 57.1875 C-85.2196875 56.3521875 -85.2196875 56.3521875 -85.125 55.5 C-83.98879251 52.26617869 -81.71410569 50.58910569 -79.3125 48.1875 C-78.45130866 46.01403432 -78.45130866 46.01403432 -78.3125 44.1875 C-77.6525 44.1875 -76.9925 44.1875 -76.3125 44.1875 C-76.3125 43.1975 -76.3125 42.2075 -76.3125 41.1875 C-75.00049596 39.83317325 -73.66618596 38.50016518 -72.3125 37.1875 C-71.9825 36.1975 -71.6525 35.2075 -71.3125 34.1875 C-70.6525 34.1875 -69.9925 34.1875 -69.3125 34.1875 C-68.92964844 33.10855469 -68.92964844 33.10855469 -68.5390625 32.0078125 C-67.22894476 28.99537617 -65.65548992 26.6891001 -63.6875 24.0625 C-61.49909376 21.12876699 -59.32091424 18.19949343 -57.21875 15.203125 C-50.40099942 5.50094148 -50.40099942 5.50094148 -45.3125 2.1875 C-44.3225 2.5175 -43.3325 2.8475 -42.3125 3.1875 C-42.3125 2.5275 -42.3125 1.8675 -42.3125 1.1875 C-28.20706319 0.12962267 -14.1407037 -0.00951824 0 0 Z " fill="#F7C026" transform="translate(713.3125,501.8125)"/>
<path d="M0 0 C112.53 0 225.06 0 341 0 C336 5 336 5 333 7 C332.67 6.01 332.34 5.02 332 4 C329.40093112 2.70046556 327.51224009 2.86906205 324.60017204 2.8613348 C323.44666941 2.85586036 322.29316677 2.85038591 321.10470951 2.84474558 C319.82652225 2.84376747 318.548335 2.84278936 317.23141479 2.84178162 C315.86850308 2.8372185 314.50559276 2.83221885 313.1426841 2.82681805 C309.38468651 2.81319897 305.626698 2.80580772 301.86868215 2.79939139 C297.82095219 2.79140395 293.77324123 2.7777005 289.7255249 2.76467896 C282.70831775 2.74289264 275.69110869 2.72475605 268.67388535 2.70907402 C258.52806475 2.68639498 248.38226517 2.65824946 238.23646237 2.62875474 C221.77695423 2.58105468 205.31743751 2.53779705 188.85791016 2.49731445 C172.86571586 2.4579718 156.8735292 2.41654854 140.88134766 2.37231445 C139.89616456 2.36959018 138.91098147 2.36686591 137.89594434 2.36405908 C132.953742 2.35037981 128.01153978 2.33665949 123.06933761 2.32291877 C82.04624095 2.20891608 41.02312786 2.10211513 0 2 C0 1.34 0 0.68 0 0 Z " fill="#FBDA4A" transform="translate(620,231)"/>
<path d="M0 0 C112.53 0 225.06 0 341 0 C339.68 1.32 338.36 2.64 337 4 C336.67 3.34 336.34 2.68 336 2 C225.12 1.67 114.24 1.34 0 1 C0 0.67 0 0.34 0 0 Z " fill="#B8932B" transform="translate(620,231)"/>
<path d="M0 0 C0.88227768 -0.00629425 1.76455536 -0.0125885 2.67356873 -0.01907349 C3.6632515 -0.02027191 4.65293427 -0.02147034 5.67260742 -0.02270508 C7.26003502 -0.0288533 7.26003502 -0.0288533 8.87953186 -0.03512573 C12.51241015 -0.04498052 16.14518598 -0.04459523 19.77807617 -0.04223633 C21.67846649 -0.04282547 21.67846649 -0.04282547 23.61724854 -0.04342651 C51.69698465 -0.03328631 79.76753139 0.51306967 107.84057617 1.08276367 C108.92403446 1.10457829 110.00749275 1.1263929 111.12378311 1.14886856 C136.07685909 1.65213651 161.02457567 2.20617563 185.96557617 3.14526367 C185.96557617 3.47526367 185.96557617 3.80526367 185.96557617 4.14526367 C168.80557617 4.14526367 151.64557617 4.14526367 133.96557617 4.14526367 C133.96557617 4.47526367 133.96557617 4.80526367 133.96557617 5.14526367 C128.98511105 5.17013539 124.00468275 5.18820448 119.02416992 5.20019531 C117.33275726 5.20519854 115.64134886 5.2120032 113.94995117 5.22070312 C111.50723207 5.23294553 109.06457055 5.23853223 106.62182617 5.24291992 C105.8756604 5.24808121 105.12949463 5.25324249 104.36071777 5.25856018 C100.1570402 5.25900108 96.12751501 4.95946409 91.9654541 4.38453674 C88.49530779 3.96935512 85.01941716 3.90941749 81.52807617 3.82885742 C80.37976318 3.79768578 80.37976318 3.79768578 79.20825195 3.7658844 C76.79410637 3.70118231 74.37986437 3.64187826 71.96557617 3.58276367 C70.31582714 3.53950272 68.66608739 3.4958862 67.01635742 3.4519043 C62.99952584 3.34558398 58.98259858 3.24410022 54.96557617 3.14526367 C54.96557617 2.48526367 54.96557617 1.82526367 54.96557617 1.14526367 C41.43557617 1.47526367 27.90557617 1.80526367 13.96557617 2.14526367 C13.96557617 2.47526367 13.96557617 2.80526367 13.96557617 3.14526367 C11.36113269 3.19921072 8.7578062 3.23890837 6.15307617 3.27026367 C5.41508789 3.28702148 4.67709961 3.3037793 3.91674805 3.32104492 C0.05311191 3.35600995 -1.74346051 3.33923922 -5.03442383 1.14526367 C-3.50486353 -0.38429662 -2.13491904 0.0106789 0 0 Z " fill="#C7AB33" transform="translate(693.034423828125,501.854736328125)"/>
<path d="M0 0 C0.66 0.33 1.32 0.66 2 1 C1.67 1.66 1.34 2.32 1 3 C3.31 3 5.62 3 8 3 C8 3.66 8 4.32 8 5 C5.36 5.33 2.72 5.66 0 6 C-1.25410875 9.56106643 -2.50248483 13.12411889 -3.75 16.6875 C-4.09804688 17.67556641 -4.44609375 18.66363281 -4.8046875 19.68164062 C-6.99857142 25.95858629 -9.03191233 32.26614474 -10.96435547 38.62817383 C-13.1861756 45.86192156 -15.56150738 53.04815703 -17.90820312 60.2421875 C-18.29298828 61.43070313 -18.67777344 62.61921875 -19.07421875 63.84375 C-19.42057373 64.90787109 -19.76692871 65.97199219 -20.1237793 67.06835938 C-20.91306441 69.70913273 -21.47220967 72.29836477 -22 75 C-23.03245624 78.61324107 -24.20846441 82.1780873 -25.375 85.75 C-25.67921875 86.72066406 -25.9834375 87.69132813 -26.296875 88.69140625 C-26.59851563 89.61308594 -26.90015625 90.53476562 -27.2109375 91.484375 C-27.61771729 92.74846191 -27.61771729 92.74846191 -28.03271484 94.03808594 C-28.35191895 94.68551758 -28.67112305 95.33294922 -29 96 C-30.485 96.495 -30.485 96.495 -32 97 C-30.58729745 91.46691502 -29.07579444 86.03506468 -27.0625 80.6875 C-25.55229756 76.66406994 -24.2861085 72.63168564 -23.1328125 68.4921875 C-21.13892181 61.43677553 -19.001531 54.43446756 -16.8125 47.4375 C-16.22909614 45.56530958 -15.64569529 43.69311822 -15.06245422 41.82087708 C-14.45715346 39.87848211 -13.85116585 37.93630235 -13.24511719 35.99414062 C-11.33759523 29.87846164 -9.44095681 23.75940245 -7.54330444 17.64065552 C-6.58004895 14.53505303 -5.61617076 11.42964392 -4.65234375 8.32421875 C-3.83443359 5.68873047 -3.83443359 5.68873047 -3 3 C-6.96 3 -10.92 3 -15 3 C-15 2.67 -15 2.34 -15 2 C-14.00097656 1.93941406 -13.00195312 1.87882813 -11.97265625 1.81640625 C-10.68230469 1.73261719 -9.39195312 1.64882813 -8.0625 1.5625 C-6.77472656 1.48128906 -5.48695313 1.40007813 -4.16015625 1.31640625 C-1.13976043 1.35080812 -1.13976043 1.35080812 0 0 Z " fill="#C07D01" transform="translate(484,592)"/>
<path d="M0 0 C27.61166285 -0.16058858 55.1901208 0.26920551 82.793396 0.92712402 C88.03146088 1.05099753 93.2696416 1.16977209 98.5078125 1.2890625 C108.67198981 1.52124272 118.83603394 1.75876034 129 2 C129 2.33 129 2.66 129 3 C127.78098999 3.03758423 127.78098999 3.03758423 126.53735352 3.07592773 C122.87889248 3.19149118 119.22071472 3.31439584 115.5625 3.4375 C114.28310547 3.47681641 113.00371094 3.51613281 111.68554688 3.55664062 C109.86313477 3.61948242 109.86313477 3.61948242 108.00390625 3.68359375 C106.87799072 3.72025146 105.7520752 3.75690918 104.59204102 3.79467773 C102.07146559 3.71218045 102.07146559 3.71218045 101 5 C99.49479548 5.02884538 97.98809747 4.98680472 96.484375 4.9140625 C95.56269531 4.87023437 94.64101563 4.82640625 93.69140625 4.78125 C92.72074219 4.7296875 91.75007812 4.678125 90.75 4.625 C89.79480469 4.58117187 88.83960938 4.53734375 87.85546875 4.4921875 C80.56332623 4.12707327 80.56332623 4.12707327 77.70336914 3.48193359 C74.03208089 2.82744764 70.41350064 2.89686013 66.69921875 2.9375 C65.90401321 2.94128662 65.10880768 2.94507324 64.289505 2.94897461 C60.90525877 2.96522937 57.52113596 2.99329708 54.13696289 3.02050781 C51.65772066 3.03872168 49.1784987 3.05073659 46.69921875 3.0625 C45.57068733 3.07494751 45.57068733 3.07494751 44.4193573 3.08764648 C40.8704396 3.10383773 37.43568051 2.98259834 33.9152832 2.51586914 C30.13780146 2.01815642 26.46276946 1.79844563 22.65625 1.68359375 C22.00168823 1.66281265 21.34712646 1.64203156 20.67272949 1.62062073 C18.61524263 1.55608956 16.5576465 1.4966972 14.5 1.4375 C13.09113527 1.39422263 11.68228093 1.35060569 10.2734375 1.30664062 C6.8490454 1.20109429 3.42458708 1.09898202 0 1 C0 0.67 0 0.34 0 0 Z " fill="#FADE47" transform="translate(798,505)"/>
<path d="M0 0 C37.62 0 75.24 0 114 0 C114 1.32 114 2.64 114 4 C113.01 4.66 112.02 5.32 111 6 C110.505 4.515 110.505 4.515 110 3 C107.66146097 1.83073048 106.2659044 1.86294818 103.65939331 1.84178162 C102.74791534 1.8319928 101.83643738 1.82220398 100.89733887 1.81211853 C99.39330505 1.80348534 99.39330505 1.80348534 97.85888672 1.79467773 C96.27837021 1.77982834 96.27837021 1.77982834 94.66592407 1.76467896 C91.17053502 1.73299999 87.67513236 1.70828124 84.1796875 1.68359375 C81.76115559 1.66302975 79.34262733 1.64203343 76.92410278 1.62062073 C70.54875632 1.56534287 64.17337712 1.51595882 57.79797363 1.46777344 C51.29627559 1.41760008 44.79462527 1.36189231 38.29296875 1.30664062 C25.52868685 1.19898918 12.76436424 1.09737195 0 1 C0 0.67 0 0.34 0 0 Z " fill="#FBE653" transform="translate(842,232)"/>
<path d="M0 0 C0.66 0.33 1.32 0.66 2 1 C-2.05032877 5.82923815 -6.15002622 9.95835518 -11 14 C-12.75958211 15.92219751 -14.44774219 17.8972856 -16.14453125 19.875 C-25.61305094 30.71894677 -25.61305094 30.71894677 -32 33 C-32.66 32.67 -33.32 32.34 -34 32 C-16.78144488 15.74682628 -16.78144488 15.74682628 -8.11254883 7.80761719 C-5.34296343 5.26573799 -2.63624379 2.68007682 0 0 Z " fill="#E4C642" transform="translate(554,292)"/>
<path d="M0 0 C0 0.33 0 0.66 0 1 C3.3 1 6.6 1 10 1 C10 1.33 10 1.66 10 2 C10.82201904 2.0501123 11.64403809 2.10022461 12.4909668 2.15185547 C16.22373946 2.38428085 19.95556526 2.62950208 23.6875 2.875 C24.98107422 2.95363281 26.27464844 3.03226563 27.60742188 3.11328125 C28.85458984 3.19707031 30.10175781 3.28085937 31.38671875 3.3671875 C33.10701294 3.47716064 33.10701294 3.47716064 34.86206055 3.58935547 C37.89517666 3.98628236 40.23341426 4.72660018 43 6 C43 6.33 43 6.66 43 7 C30.39472261 6.43237399 17.91130155 5.35517747 5.375 3.9375 C3.67452871 3.74890168 1.97400796 3.56074889 0.2734375 3.37304688 C-3.8182933 2.92046593 -7.90931967 2.46197528 -12 2 C-12 1.67 -12 1.34 -12 1 C-7.93631321 0.22596442 -4.13574827 -0.0984702 0 0 Z " fill="#E7BD27" transform="translate(313,575)"/>
<path d="M0 0 C0.66 0.33 1.32 0.66 2 1 C1.67 1.66 1.34 2.32 1 3 C3.31 3 5.62 3 8 3 C8 3.66 8 4.32 8 5 C5.36 5.33 2.72 5.66 0 6 C-0.19634033 6.60062256 -0.39268066 7.20124512 -0.5949707 7.82006836 C-1.48851711 10.5301161 -2.40022114 13.23370369 -3.3125 15.9375 C-3.62123047 16.88302734 -3.92996094 17.82855469 -4.24804688 18.80273438 C-4.55419922 19.70185547 -4.86035156 20.60097656 -5.17578125 21.52734375 C-5.45333252 22.35999756 -5.73088379 23.19265137 -6.0168457 24.05053711 C-7 26 -7 26 -10 27 C-7.86662595 18.93519961 -5.49320448 10.96053614 -3 3 C-6.96 3 -10.92 3 -15 3 C-15 2.67 -15 2.34 -15 2 C-14.00097656 1.93941406 -13.00195312 1.87882813 -11.97265625 1.81640625 C-10.68230469 1.73261719 -9.39195312 1.64882813 -8.0625 1.5625 C-6.77472656 1.48128906 -5.48695313 1.40007813 -4.16015625 1.31640625 C-1.13976043 1.35080812 -1.13976043 1.35080812 0 0 Z " fill="#C07B00" transform="translate(484,592)"/>
<path d="M0 0 C0.99 0.33 1.98 0.66 3 1 C1.71464347 4.85606959 0.09529353 5.6408987 -3.1875 8 C-4.2773891 8.79111577 -5.36587108 9.58417276 -6.453125 10.37890625 C-7.31647461 11.00949951 -7.31647461 11.00949951 -8.19726562 11.65283203 C-10.07342444 13.05486945 -11.90684348 14.50006108 -13.734375 15.96484375 C-14.35159424 16.45919922 -14.96881348 16.95355469 -15.60473633 17.46289062 C-16.8033878 18.42730449 -17.99869229 19.39589693 -19.19018555 20.36914062 C-22.32512045 22.87890986 -25.17216704 24.74790511 -29 26 C-23.06658641 17.23241291 -23.06658641 17.23241291 -18 16 C-17.01 15.67 -16.02 15.34 -15 15 C-14.29788106 13.34795544 -13.63028587 11.68076231 -13 10 C-10.6921509 8.84607545 -8.52769669 8.46562834 -6 8 C-5.67 6.68 -5.34 5.36 -5 4 C-4.34 4 -3.68 4 -3 4 C-2.67 3.01 -2.34 2.02 -2 1 C-1.34 0.67 -0.68 0.34 0 0 Z " fill="#E8CC42" transform="translate(909,546)"/>
<path d="M0 0 C11.22 0 22.44 0 34 0 C30.35873563 3.64126437 27.02235247 6.87150363 23 10 C22.34 10 21.68 10 21 10 C21.60323234 6.62189888 22.90192055 4.67744188 25 2 C24.03320312 2.01160156 23.06640625 2.02320313 22.0703125 2.03515625 C14.63911168 2.08665962 7.38312393 1.97283515 0 1 C0 0.67 0 0.34 0 0 Z " fill="#FCE549" transform="translate(928,508)"/>
<path d="M0 0 C-5.38938273 4.82740045 -10.92672247 9.37407426 -16.6875 13.75 C-17.42033203 14.31332031 -18.15316406 14.87664063 -18.90820312 15.45703125 C-22.49841571 18.19582282 -26.05115633 20.78802445 -30 23 C-29.44295272 19.76912579 -28.66812465 17.97638863 -26 16 C-24.68 16 -23.36 16 -22 16 C-21.95875 15.4225 -21.9175 14.845 -21.875 14.25 C-20.80009266 11.48595256 -19.30348099 10.65467769 -16.828125 9.140625 C-14.70227329 7.81423889 -12.70058798 6.36671267 -10.6875 4.875 C-10.01074219 4.37742187 -9.33398438 3.87984375 -8.63671875 3.3671875 C-6.87293659 2.07899339 -6.87293659 2.07899339 -6 0 C-3 -1 -3 -1 0 0 Z " fill="#E9CE44" transform="translate(948,520)"/>
<path d="M0 0 C7.3898651 -0.11256323 14.64427924 0.16994151 22 0.875 C22.95535645 0.96378418 23.91071289 1.05256836 24.89501953 1.14404297 C31.33063313 1.76861471 37.68462845 2.57979683 44 4 C43.67 4.99 43.34 5.98 43 7 C42.34 6.67 41.68 6.34 41 6 C37.9756052 5.51274974 34.92208545 5.24819225 31.875 4.9375 C30.62976563 4.80118164 30.62976563 4.80118164 29.359375 4.66210938 C25.50747806 4.26061855 21.72587539 3.95216093 17.8515625 4.00390625 C13.96104593 3.99996049 10.34189718 3.5910611 6.5 3 C5.2728125 2.814375 4.045625 2.62875 2.78125 2.4375 C1.8634375 2.293125 0.945625 2.14875 0 2 C0 1.34 0 0.68 0 0 Z " fill="#CC8409" transform="translate(550,601)"/>
<path d="M0 0 C25.74 0 51.48 0 78 0 C76.68 1.32 75.36 2.64 74 4 C73.505 3.01 73.505 3.01 73 2 C48.91 1.67 24.82 1.34 0 1 C0 0.67 0 0.34 0 0 Z " fill="#BDA133" transform="translate(883,231)"/>
<path d="M0 0 C20.53191489 -0.19148936 20.53191489 -0.19148936 30 1 C30 1.33 30 1.66 30 2 C15.69292646 3.36257843 1.35638391 3.09768292 -13 3 C-13 2.67 -13 2.34 -13 2 C-6.565 1.505 -6.565 1.505 0 1 C0 0.67 0 0.34 0 0 Z " fill="#141204" transform="translate(892,503)"/>
<path d="M0 0 C0.33 0.66 0.66 1.32 1 2 C-2.97257149 7.92876199 -7.16313821 11.94895424 -13 16 C-14.67344761 17.32481269 -16.34348188 18.65407903 -18 20 C-18 17 -18 17 -16.3125 14.984375 C-15.549375 14.24703125 -14.78625 13.5096875 -14 12.75 C-13.1853125 11.96109375 -12.370625 11.1721875 -11.53125 10.359375 C-8.09176442 7.15343474 -4.56941499 4.05949856 -1 1 C-0.67 0.67 -0.34 0.34 0 0 Z " fill="#E6C841" transform="translate(510,333)"/>
<path d="M0 0 C2 3 2 3 1.609375 5.015625 C1.32578125 5.75296875 1.0421875 6.4903125 0.75 7.25 C0.45609375 8.04921875 0.1621875 8.8484375 -0.140625 9.671875 C-0.56601562 10.82429687 -0.56601562 10.82429687 -1 12 C-1.33 13.155 -1.66 14.31 -2 15.5 C-3.20383355 19.71341742 -4.59289383 23.85104696 -6 28 C-6.33 28.99 -6.66 29.98 -7 31 C-7.66 31 -8.32 31 -9 31 C-6.60471932 20.47337177 -3.31780699 10.26480091 0 0 Z " fill="#C88801" transform="translate(451,691)"/>
<path d="M0 0 C0.66 0.99 1.32 1.98 2 3 C1.33484375 4.22783203 1.33484375 4.22783203 0.65625 5.48046875 C-1.48468881 10.02996372 -2.77718977 14.68007178 -4.10546875 19.51757812 C-4.648512 21.37326412 -5.31584421 23.19157601 -6 25 C-6.99 25.33 -7.98 25.66 -9 26 C-3.30245232 3.30245232 -3.30245232 3.30245232 0 0 Z " fill="#CE8A02" transform="translate(461,663)"/>
<path d="M0 0 C0.33 0.66 0.66 1.32 1 2 C-0.07826365 3.27513763 -1.16285519 4.54492569 -2.25 5.8125 C-2.85328125 6.52019531 -3.4565625 7.22789062 -4.078125 7.95703125 C-5.93100994 9.926663 -7.81776142 11.41611716 -10 13 C-11.6857124 14.64740076 -13.3563186 16.31066078 -15 18 C-15.99 17.67 -16.98 17.34 -18 17 C-17.49025635 16.52054932 -16.9805127 16.04109863 -16.45532227 15.54711914 C-14.15756291 13.38574089 -11.86002856 11.22412359 -9.5625 9.0625 C-8.76005859 8.30775391 -7.95761719 7.55300781 -7.13085938 6.77539062 C-6.36708984 6.05673828 -5.60332031 5.33808594 -4.81640625 4.59765625 C-4.10943604 3.93258057 -3.40246582 3.26750488 -2.67407227 2.58227539 C-1.77353853 1.73112195 -0.87619153 0.87619153 0 0 Z " fill="#EFC42C" transform="translate(314,517)"/>
<path d="M0 0 C0.66 0.33 1.32 0.66 2 1 C-7.57230143 11.14663951 -7.57230143 11.14663951 -13 13 C-13.66 12.67 -14.32 12.34 -15 12 C-13.06775868 10.18159615 -11.12966092 8.37025532 -9.1875 6.5625 C-8.36668945 5.7880957 -8.36668945 5.7880957 -7.52929688 4.99804688 C-5.03940058 2.68923395 -3.25924458 1.08641486 0 0 Z " fill="#F4D347" transform="translate(535,312)"/>
<path d="M0 0 C0.66 0.33 1.32 0.66 2 1 C1.67 1.66 1.34 2.32 1 3 C3.31 3 5.62 3 8 3 C8 3.66 8 4.32 8 5 C6.1128125 5.12375 6.1128125 5.12375 4.1875 5.25 C0.66188788 5.66557143 0.66188788 5.66557143 -2 8.0625 C-2.33 8.701875 -2.66 9.34125 -3 10 C-2.67 7.69 -2.34 5.38 -2 3 C-6.29 3 -10.58 3 -15 3 C-15 2.67 -15 2.34 -15 2 C-14.00097656 1.93941406 -13.00195312 1.87882813 -11.97265625 1.81640625 C-10.68230469 1.73261719 -9.39195312 1.64882813 -8.0625 1.5625 C-6.77472656 1.48128906 -5.48695313 1.40007813 -4.16015625 1.31640625 C-1.13976043 1.35080812 -1.13976043 1.35080812 0 0 Z " fill="#CA8D0D" transform="translate(484,592)"/>
<path d="M0 0 C0.66 0.66 1.32 1.32 2 2 C-3.35618138 7.55016783 -8.52398436 12.77651154 -15 17 C-15.66 16.67 -16.32 16.34 -17 16 C-16.10796875 15.18015625 -15.2159375 14.3603125 -14.296875 13.515625 C-13.11454214 12.42712808 -11.93225277 11.33858392 -10.75 10.25 C-9.87021484 9.44175781 -9.87021484 9.44175781 -8.97265625 8.6171875 C-5.91843019 5.80318147 -2.90859255 2.96618844 0 0 Z " fill="#EFC028" transform="translate(284,545)"/>
<path d="M0 0 C0.33 0.99 0.66 1.98 1 3 C-0.6010431 4.6280776 -2.20594736 6.25235885 -3.8125 7.875 C-5.15248047 9.23238281 -5.15248047 9.23238281 -6.51953125 10.6171875 C-9 13 -9 13 -12 15 C-12.99 14.67 -13.98 14.34 -15 14 C-10.05 9.38 -5.1 4.76 0 0 Z " fill="#F3C831" transform="translate(344,489)"/>
<path d="M0 0 C1.98 0 3.96 0 6 0 C6 0.99 6 1.98 6 3 C4.3203125 4.60546875 4.3203125 4.60546875 2.125 6.1875 C1.40570312 6.71730469 0.68640625 7.24710938 -0.0546875 7.79296875 C-2 9 -2 9 -4 9 C-3.39812271 5.62948719 -2.11127036 3.66203654 0 1 C0 0.67 0 0.34 0 0 Z " fill="#F1D84D" transform="translate(953,509)"/>
<path d="M0 0 C0 0.33 0 0.66 0 1 C3.3 1 6.6 1 10 1 C10 1.33 10 1.66 10 2 C12.475 2.495 12.475 2.495 15 3 C15 3.33 15 3.66 15 4 C11.81223289 3.85967508 8.6248615 3.71173356 5.4375 3.5625 C4.54224609 3.52318359 3.64699219 3.48386719 2.72460938 3.44335938 C-2.2458219 3.20667217 -7.08823519 2.80178328 -12 2 C-12 1.67 -12 1.34 -12 1 C-7.93631321 0.22596442 -4.13574827 -0.0984702 0 0 Z " fill="#B9931E" transform="translate(313,575)"/>
<path d="M0 0 C0 3 0 3 -1.19335938 4.53393555 C-1.73798828 5.062854 -2.28261719 5.59177246 -2.84375 6.13671875 C-3.72353516 7.00200195 -3.72353516 7.00200195 -4.62109375 7.88476562 C-5.24113281 8.47966797 -5.86117187 9.07457031 -6.5 9.6875 C-7.12003906 10.29400391 -7.74007812 10.90050781 -8.37890625 11.52539062 C-9.91264707 13.02373743 -11.45548198 14.51276493 -13 16 C-13.66 15.34 -14.32 14.68 -15 14 C-13.44073252 12.41348318 -11.87743482 10.83092685 -10.3125 9.25 C-9.44238281 8.36828125 -8.57226562 7.4865625 -7.67578125 6.578125 C-5.21997532 4.21194702 -2.69858952 2.08107444 0 0 Z " fill="#E2C042" transform="translate(600,250)"/>
<path d="M0 0 C0.99 0.33 1.98 0.66 3 1 C-4.05024311 9.36628849 -4.05024311 9.36628849 -7 12 C-7.66 12 -8.32 12 -9 12 C-8.45925627 8.21479387 -6.92427254 6.40822445 -4 4 C-3.01 4 -2.02 4 -1 4 C-0.67 2.68 -0.34 1.36 0 0 Z " fill="#F0D651" transform="translate(934,251)"/>
<path d="M0 0 C7.26 0 14.52 0 22 0 C22 0.66 22 1.32 22 2 C23.98 2 25.96 2 28 2 C28 2.33 28 2.66 28 3 C18.55426495 3.30470113 9.3578564 2.14169926 0 1 C0 0.67 0 0.34 0 0 Z " fill="#B4901E" transform="translate(273,573)"/>
<path d="M0 0 C0.66 0.66 1.32 1.32 2 2 C0.26461877 3.87002288 -1.4859335 5.71988092 -3.25 7.5625 C-3.98669922 8.36204102 -3.98669922 8.36204102 -4.73828125 9.17773438 C-6.203125 10.69140625 -6.203125 10.69140625 -9 13 C-11.359375 12.83984375 -11.359375 12.83984375 -13 12 C-12.31292969 11.38511719 -11.62585938 10.77023437 -10.91796875 10.13671875 C-10.01691406 9.32847656 -9.11585938 8.52023437 -8.1875 7.6875 C-7.29417969 6.88699219 -6.40085937 6.08648437 -5.48046875 5.26171875 C-3.60073214 3.54775419 -1.77407253 1.82122396 0 0 Z " fill="#EEC42C" transform="translate(328,504)"/>
<path d="M0 0 C0.66 0.33 1.32 0.66 2 1 C-0.31883213 5.50884026 -3.06451569 7.93906776 -7 11 C-7.66 10.01 -8.32 9.02 -9 8 C-3.25 3 -3.25 3 -1 3 C-0.67 2.01 -0.34 1.02 0 0 Z " fill="#EBC741" transform="translate(711,455)"/>
<path d="M0 0 C0.99 0.33 1.98 0.66 3 1 C3.25 3.25 3.25 3.25 3 6 C1.125 8.3125 1.125 8.3125 -1 10 C-1.66 10 -2.32 10 -3 10 C-2.49287967 6.28111761 -1.88391785 3.26545761 0 0 Z " fill="#EAC822" transform="translate(366,966)"/>
<path d="M0 0 C0.33 0 0.66 0 1 0 C1.35050464 5.841744 1.16727335 9.8531808 -2 15 C-2.66 15 -3.32 15 -4 15 C-3.79503906 14.25234375 -3.59007812 13.5046875 -3.37890625 12.734375 C-3.10949219 11.74953125 -2.84007812 10.7646875 -2.5625 9.75 C-2.29566406 8.77546875 -2.02882813 7.8009375 -1.75390625 6.796875 C-1.14455416 4.53627347 -0.55761745 2.27377991 0 0 Z " fill="#DBA40C" transform="translate(414,808)"/>
<path d="M0 0 C6.09781001 -0.22084624 11.21642935 -0.01167675 17 2 C17 2.33 17 2.66 17 3 C11.39 2.67 5.78 2.34 0 2 C0 1.34 0 0.68 0 0 Z " fill="#DCB52A" transform="translate(415,587)"/>
<path d="M0 0 C0.90105469 0.01804687 1.80210937 0.03609375 2.73046875 0.0546875 C3.41753906 0.07789063 4.10460937 0.10109375 4.8125 0.125 C4.8125 0.785 4.8125 1.445 4.8125 2.125 C6.1325 2.455 7.4525 2.785 8.8125 3.125 C3.2025 2.795 -2.4075 2.465 -8.1875 2.125 C-4.87379 -0.08414 -3.8428979 -0.09981553 0 0 Z " fill="#CBA424" transform="translate(402.1875,584.875)"/>
<path d="M0 0 C0.33 0.66 0.66 1.32 1 2 C-4.94 1.67 -10.88 1.34 -17 1 C-17 0.67 -17 0.34 -17 0 C-11.0942058 -0.88860329 -5.8857823 -1.15613581 0 0 Z " fill="#CDA620" transform="translate(355,580)"/>
<path d="M0 0 C6.11090483 -0.09945415 11.97403427 -0.0712828 18 1 C17.67 1.99 17.34 2.98 17 4 C16.34 3.67 15.68 3.34 15 3 C12.45802036 2.6087065 9.92608411 2.25520881 7.375 1.9375 C6.66859375 1.84662109 5.9621875 1.75574219 5.234375 1.66210938 C3.4899959 1.43816881 1.74504866 1.21866182 0 1 C0 0.67 0 0.34 0 0 Z " fill="#BE7606" transform="translate(576,604)"/>
<path d="M0 0 C0.99 0.33 1.98 0.66 3 1 C-1.625 5.875 -1.625 5.875 -5 7 C-5.33 7.99 -5.66 8.98 -6 10 C-6.66 9.34 -7.32 8.68 -8 8 C-5.36 5.36 -2.72 2.72 0 0 Z " fill="#E2C339" transform="translate(470,370)"/>
<path d="M0 0 C0.66 0.33 1.32 0.66 2 1 C0.64458676 5.06623972 -1.57009469 6.53046818 -5 9 C-5.99 8.67 -6.98 8.34 -8 8 C-5.36 5.36 -2.72 2.72 0 0 Z " fill="#E3C43F" transform="translate(567,280)"/>
<path d="M0 0 C0 3 0 3 -1.96875 5.04296875 C-2.8040625 5.75066406 -3.639375 6.45835937 -4.5 7.1875 C-5.3353125 7.90292969 -6.170625 8.61835938 -7.03125 9.35546875 C-7.6809375 9.89816406 -8.330625 10.44085938 -9 11 C-9.66 10.67 -10.32 10.34 -11 10 C-5.555 5.05 -5.555 5.05 0 0 Z " fill="#E1BD37" transform="translate(395,441)"/>
<path d="M0 0 C0.66 0.33 1.32 0.66 2 1 C0.70700306 3.88437779 -0.65941363 5.87219421 -3 8 C-3.99 7.67 -4.98 7.34 -6 7 C-5.34 6.67 -4.68 6.34 -4 6 C-3.3162955 4.67532254 -2.65035814 3.34136367 -2 2 C-1.34 1.34 -0.68 0.68 0 0 Z " fill="#E6C94A" transform="translate(766,405)"/>
<path d="M0 0 C0.66 0.66 1.32 1.32 2 2 C1.75 3.6875 1.75 3.6875 1 6 C0.649375 7.2375 0.29875 8.475 -0.0625 9.75 C-0.5265625 11.35875 -0.5265625 11.35875 -1 13 C-1.66 13 -2.32 13 -3 13 C-2.68817931 11.58318366 -2.37551263 10.16655349 -2.0625 8.75 C-1.88847656 7.96109375 -1.71445312 7.1721875 -1.53515625 6.359375 C-1.052444 4.23121297 -0.53836822 2.11467158 0 0 Z " fill="#D19A07" transform="translate(418,795)"/>
<path d="M0 0 C0.78375 0.04125 1.5675 0.0825 2.375 0.125 C-1.07115385 4.925 -1.07115385 4.925 -3.875 5.9375 C-4.74125 6.0303125 -4.74125 6.0303125 -5.625 6.125 C-4.86443086 2.32215429 -4.27658992 0.20364714 0 0 Z " fill="#F2C835" transform="translate(721.625,693.875)"/>
<path d="M0 0 C1.18414294 3.55242882 0.69535532 4.69830562 -0.4375 8.1875 C-0.72496094 9.08855469 -1.01242187 9.98960937 -1.30859375 10.91796875 C-1.53675781 11.60503906 -1.76492188 12.29210937 -2 13 C-2.33 13 -2.66 13 -3 13 C-3.31563182 7.73946963 -2.66590937 4.55426184 0 0 Z " fill="#D48A01" transform="translate(475,618)"/>
<path d="M0 0 C0.33 0.66 0.66 1.32 1 2 C-0.125 4.5625 -0.125 4.5625 -2 7 C-4.6875 7.8125 -4.6875 7.8125 -7 8 C-6.02133662 6.85373678 -5.04205413 5.70800212 -4.0625 4.5625 C-3.51722656 3.92441406 -2.97195313 3.28632812 -2.41015625 2.62890625 C-1.63204305 1.73008851 -0.84063472 0.84063472 0 0 Z " fill="#EABE2B" transform="translate(266,562)"/>
<path d="M0 0 C1.65 0 3.3 0 5 0 C2.19195732 2.96404505 -0.18315774 5.44499019 -4 7 C-3.67 6.01 -3.34 5.02 -3 4 C-2.34 4 -1.68 4 -1 4 C-0.67 2.68 -0.34 1.36 0 0 Z " fill="#EAC02E" transform="translate(694,714)"/>
<path d="M0 0 C0.66 0.33 1.32 0.66 2 1 C0.02 3.31 -1.96 5.62 -4 8 C-4.99 7.67 -5.98 7.34 -7 7 C-4.69 4.69 -2.38 2.38 0 0 Z " fill="#E3C238" transform="translate(454,385)"/>
<path d="M0 0 C1.32 0 2.64 0 4 0 C2.86280581 3.41158256 1.95657056 4.11854601 -1 6 C-1.66 6 -2.32 6 -3 6 C-1.125 1.125 -1.125 1.125 0 0 Z " fill="#ECD151" transform="translate(875,305)"/>
<path d="M0 0 C0.99 0 1.98 0 3 0 C1.60667426 3.36720387 0.0210714 4.9859524 -3 7 C-3.33 6.01 -3.66 5.02 -4 4 C-3.34 4 -2.68 4 -2 4 C-1.34 2.68 -0.68 1.36 0 0 Z " fill="#E3CA4B" transform="translate(904,279)"/>
<path d="M0 0 C0.66 0 1.32 0 2 0 C1.25 6.75 1.25 6.75 -1 9 C-2.25541557 5.23375329 -1.37061958 3.62811066 0 0 Z " fill="#EAB312" transform="translate(400,854)"/>
<path d="M0 0 C0.66 0.33 1.32 0.66 2 1 C0.02 2.98 -1.96 4.96 -4 7 C-4.99 6.67 -5.98 6.34 -7 6 C-6.34 5.67 -5.68 5.34 -5 5 C-5 4.34 -5 3.68 -5 3 C-4.01 3 -3.02 3 -2 3 C-2 2.34 -2 1.68 -2 1 C-1.34 0.67 -0.68 0.34 0 0 Z " fill="#F2D54C" transform="translate(736,434)"/>
<path d="M0 0 C0.66 0.66 1.32 1.32 2 2 C-1.465 4.97 -1.465 4.97 -5 8 C-5 5 -5 5 -2.5 2.3125 C-1.675 1.549375 -0.85 0.78625 0 0 Z " fill="#0B0902" transform="translate(579,266)"/>
<path d="M0 0 C4.29 0 8.58 0 13 0 C11.68 1.32 10.36 2.64 9 4 C8.67 3.34 8.34 2.68 8 2 C6.10466658 1.53476937 6.10466658 1.53476937 3.9375 1.375 C2.638125 1.25125 1.33875 1.1275 0 1 C0 0.67 0 0.34 0 0 Z " fill="#C8AF38" transform="translate(948,231)"/>
<path d="M0 0 C0.99 0.33 1.98 0.66 3 1 C0.03 3.475 0.03 3.475 -3 6 C-3.66 5.67 -4.32 5.34 -5 5 C-3.35 3.35 -1.7 1.7 0 0 Z " fill="#F0CA39" transform="translate(739,680)"/>
<path d="M0 0 C0.598125 0.20625 1.19625 0.4125 1.8125 0.625 C-2.9375 4.625 -2.9375 4.625 -5.1875 4.625 C-5.1875 3.635 -5.1875 2.645 -5.1875 1.625 C-2.1875 -0.375 -2.1875 -0.375 0 0 Z " fill="#F4CB39" transform="translate(753.1875,670.375)"/>
<path d="M0 0 C1.04973814 4.19895255 0.72795155 6.79405774 0 11 C-0.99 11.33 -1.98 11.66 -3 12 C-2.01 8.04 -1.02 4.08 0 0 Z " fill="#A36501" transform="translate(481,595)"/>
<path d="M0 0 C-0.625 1.875 -0.625 1.875 -2 4 C-5.125 5.25 -5.125 5.25 -8 6 C-3.38461538 0 -3.38461538 0 0 0 Z " fill="#DDB428" transform="translate(293,539)"/>
<path d="M0 0 C0.66 0.33 1.32 0.66 2 1 C0.63016497 4.16115776 0.0109362 4.9927092 -3 7 C-3.99 6.67 -4.98 6.34 -6 6 C-4.02 4.02 -2.04 2.04 0 0 Z " fill="#DDB52A" transform="translate(302,528)"/>
<path d="M0 0 C0.66 0.33 1.32 0.66 2 1 C0.35 2.98 -1.3 4.96 -3 7 C-3.99 6.67 -4.98 6.34 -6 6 C-4.02 4.02 -2.04 2.04 0 0 Z " fill="#DAB532" transform="translate(372,462)"/>
<path d="M0 0 C0.33 0.66 0.66 1.32 1 2 C-1.57784846 4.64752004 -3.91648098 6.94432065 -7 9 C-5.44499019 5.18315774 -2.96404505 2.80804268 0 0 Z " fill="#EED246" transform="translate(510,333)"/>
<path d="M0 0 C2 1 2 1 2 1 Z M-2 1 C-1.34 1.33 -0.68 1.66 0 2 C-3.5 6.875 -3.5 6.875 -8 8 C-6.02 5.69 -4.04 3.38 -2 1 Z " fill="#E0C642" transform="translate(528,317)"/>
<path d="M0 0 C0.33 0 0.66 0 1 0 C1 2.97 1 5.94 1 9 C0.01 9 -0.98 9 -2 9 C-1.34 6.03 -0.68 3.06 0 0 Z " fill="#E0B413" transform="translate(374,937)"/>
<path d="M0 0 C0.33 0 0.66 0 1 0 C1.125 7.75 1.125 7.75 0 10 C-0.66 10 -1.32 10 -2 10 C-1.34 6.7 -0.68 3.4 0 0 Z " fill="#D6A10F" transform="translate(409,824)"/>
<path d="M0 0 C0.66 0.33 1.32 0.66 2 1 C-3.14285714 6.57142857 -3.14285714 6.57142857 -7 7 C-4.66666667 4.66666667 -2.33333333 2.33333333 0 0 Z " fill="#241E09" transform="translate(952,516)"/>
<path d="M0 0 C2.31 0 4.62 0 7 0 C5.25 3.875 5.25 3.875 3 5 C2.67 4.01 2.34 3.02 2 2 C1.34 1.34 0.68 0.68 0 0 Z " fill="#F1D755" transform="translate(950,233)"/>
<path d="M0 0 C0.66 0.33 1.32 0.66 2 1 C-0.64 2.98 -3.28 4.96 -6 7 C-5 3 -5 3 -2.5625 1.1875 C-1.716875 0.795625 -0.87125 0.40375 0 0 Z " fill="#E4C238" transform="translate(811,625)"/>
<path d="M0 0 C1.66362417 0.34820041 3.32995171 0.68404492 5 1 C5 1.33 5 1.66 5 2 C-3.57142857 2.28571429 -3.57142857 2.28571429 -7 0 C-3.98968256 -0.93423645 -3.13349732 -1.04449911 0 0 Z " fill="#D1A71E" transform="translate(323,577)"/>
<path d="M0 0 C0.66 0.33 1.32 0.66 2 1 C-1.465 3.97 -1.465 3.97 -5 7 C-5.66 6.67 -6.32 6.34 -7 6 C-4.69 4.02 -2.38 2.04 0 0 Z " fill="#E1B721" transform="translate(274,555)"/>
<path d="M0 0 C0.66 0.33 1.32 0.66 2 1 C0.35 2.98 -1.3 4.96 -3 7 C-3.99 6.67 -4.98 6.34 -6 6 C-4.02 4.02 -2.04 2.04 0 0 Z " fill="#D8B52C" transform="translate(335,497)"/>
<path d="M0 0 C0.66 0.33 1.32 0.66 2 1 C-1.5 5.875 -1.5 5.875 -6 7 C-4.02 4.69 -2.04 2.38 0 0 Z " fill="#DEBB37" transform="translate(406,430)"/>
<path d="M0 0 C0.66 0.66 1.32 1.32 2 2 C-0.97 4.475 -0.97 4.475 -4 7 C-4 4 -4 4 -2 1.8125 C-1.34 1.214375 -0.68 0.61625 0 0 Z " fill="#EEC840" transform="translate(590,259)"/>
</svg>
